<mxfile>
  <diagram name="Use Case Diagram">
    <mxGraphModel dx="1138" dy="435" grid="1" gridSize="10" guides="1" tooltips="1" connect="1" arrows="1" fold="1" page="1" pageScale="1" pageWidth="827" pageHeight="1169" math="0" shadow="0">
      <root>
        <mxCell id="0"/>
        <mxCell id="1" parent="0"/>
        
        <!-- Actors -->
        <mxCell id="2" value="Doctor" style="shape=actor" vertex="1" parent="1">
          <mxGeometry x="50" y="100" width="40" height="80" as="geometry"/>
        </mxCell>
        <mxCell id="3" value="Patient" style="shape=actor" vertex="1" parent="1">
          <mxGeometry x="50" y="300" width="40" height="80" as="geometry"/>
        </mxCell>
        <mxCell id="4" value="Receptionist" style="shape=actor" vertex="1" parent="1">
          <mxGeometry x="50" y="500" width="40" height="80" as="geometry"/>
        </mxCell>
        <mxCell id="5" value="System Admin" style="shape=actor" vertex="1" parent="1">
          <mxGeometry x="50" y="700" width="40" height="80" as="geometry"/>
        </mxCell>
        
        <!-- Use Cases -->
        <mxCell id="6" value="Manage Appointments" style="ellipse;whiteSpace=wrap;html=1;" vertex="1" parent="1">
          <mxGeometry x="250" y="100" width="160" height="60" as="geometry"/>
        </mxCell>
        <mxCell id="7" value="Manage Patients" style="ellipse;whiteSpace=wrap;html=1;" vertex="1" parent="1">
          <mxGeometry x="250" y="200" width="160" height="60" as="geometry"/>
        </mxCell>
        <mxCell id="8" value="Manage Doctors" style="ellipse;whiteSpace=wrap;html=1;" vertex="1" parent="1">
          <mxGeometry x="250" y="300" width="160" height="60" as="geometry"/>
        </mxCell>
        <mxCell id="9" value="Manage Fees" style="ellipse;whiteSpace=wrap;html=1;" vertex="1" parent="1">
          <mxGeometry x="250" y="400" width="160" height="60" as="geometry"/>
        </mxCell>
        <mxCell id="10" value="Generate Financial Reports" style="ellipse;whiteSpace=wrap;html=1;" vertex="1" parent="1">
          <mxGeometry x="250" y="500" width="160" height="60" as="geometry"/>
        </mxCell>
        <mxCell id="11" value="Manage Medications" style="ellipse;whiteSpace=wrap;html=1;" vertex="1" parent="1">
          <mxGeometry x="250" y="600" width="160" height="60" as="geometry"/>
        </mxCell>
        <mxCell id="12" value="Manage Prescriptions" style="ellipse;whiteSpace=wrap;html=1;" vertex="1" parent="1">
          <mxGeometry x="250" y="700" width="160" height="60" as="geometry"/>
        </mxCell>
        <mxCell id="13" value="Manage Supplies" style="ellipse;whiteSpace=wrap;html=1;" vertex="1" parent="1">
          <mxGeometry x="250" y="800" width="160" height="60" as="geometry"/>
        </mxCell>
        <mxCell id="14" value="Manage Tasks" style="ellipse;whiteSpace=wrap;html=1;" vertex="1" parent="1">
          <mxGeometry x="450" y="100" width="160" height="60" as="geometry"/>
        </mxCell>
        <mxCell id="15" value="Manage Treatments" style="ellipse;whiteSpace=wrap;html=1;" vertex="1" parent="1">
          <mxGeometry x="450" y="200" width="160" height="60" as="geometry"/>
        </mxCell>
        <mxCell id="16" value="Manage Users" style="ellipse;whiteSpace=wrap;html=1;" vertex="1" parent="1">
          <mxGeometry x="450" y="300" width="160" height="60" as="geometry"/>
        </mxCell>
        <mxCell id="17" value="Utilize Utilities" style="ellipse;whiteSpace=wrap;html=1;" vertex="1" parent="1">
          <mxGeometry x="450" y="400" width="160" height="60" as="geometry"/>
        </mxCell>
        
        <!-- Associations -->
        <mxCell id="18" edge="1" parent="1" source="2" target="6">
          <mxGeometry relative="1" as="geometry"/>
        </mxCell>
        <mxCell id="19" edge="1" parent="1" source="2" target="7">
          <mxGeometry relative="1" as="geometry"/>
        </mxCell>
        <mxCell id="20" edge="1" parent="1" source="2" target="12">
          <mxGeometry relative="1" as="geometry"/>
        </mxCell>
        <mxCell id="21" edge="1" parent="1" source="2" target="15">
          <mxGeometry relative="1" as="geometry"/>
        </mxCell>
        <mxCell id="22" edge="1" parent="1" source="2" target="11">
          <mxGeometry relative="1" as="geometry"/>
        </mxCell>
        <mxCell id="23" edge="1" parent="1" source="3" target="6">
          <mxGeometry relative="1" as="geometry"/>
        </mxCell>
        <mxCell id="24" edge="1" parent="1" source="4" target="7">
          <mxGeometry relative="1" as="geometry"/>
        </mxCell>
        <mxCell id="25" edge="1" parent="1" source="4" target="6">
          <mxGeometry relative="1" as="geometry"/>
        </mxCell>
        <mxCell id="26" edge="1" parent="1" source="4" target="9">
          <mxGeometry relative="1" as="geometry"/>
        </mxCell>
        <mxCell id="27" edge="1" parent="1" source="4" target="13">
          <mxGeometry relative="1" as="geometry"/>
        </mxCell>
        <mxCell id="28" edge="1" parent="1" source="5" target="8">
          <mxGeometry relative="1" as="geometry"/>
        </mxCell>
        <mxCell id="29" edge="1" parent="1" source="5" target="16">
          <mxGeometry relative="1" as="geometry"/>
        </mxCell>
        <mxCell id="30" edge="1" parent="1" source="5" target="10">
          <mxGeometry relative="1" as="geometry"/>
        </mxCell>
        <mxCell id="31" edge="1" parent="1" source="5" target="17">
          <mxGeometry relative="1" as="geometry"/>
        </mxCell>
        <mxCell id="32" edge="1" parent="1" source="5" target="14">
          <mxGeometry relative="1" as="geometry"/>
        </mxCell>
      </root>
    </mxGraphModel>
  </diagram>
</mxfile>
